PathFileType	4	(X/Y/Z)	E:/Microgravity/Neeraj_13_07_24_t02 _without_weight_pp.trc													
DataRate	CameraRate	NumFrames	NumMarkers	Units	OrigDataRate	OrigDataStartFrame	OrigNumFrames									
120	120	29	5	m	120	1765	7058									
Frame#	Time	RHAND			r_radius_styloid			RWRB			r_humerus_epicondyle			r_acromion		
		X1	Y1	Z1	X2	Y2	Z2	X3	Y3	Z3	X4	Y4	Z4	X5	Y5	Z5
																
1765	14.7	0.3001	-0.14252	0.22256	0.20918	-0.17821	0.27679	0.24277	-0.23182	0.19974	-0.00319	-0.25005	0.26566	-0.01283	0.08225	0.18244
1766	14.708	0.2997	-0.14171	0.2224	0.20889	-0.1776	0.27668	0.24258	-0.23115	0.19964	-0.00328	-0.24995	0.26567	-0.0129	0.08225	0.18243
1767	14.717	0.29929	-0.14091	0.22225	0.20859	-0.177	0.27656	0.24239	-0.23049	0.19955	-0.00337	-0.24986	0.26568	-0.01297	0.08225	0.18242
1768	14.725	0.29889	-0.14013	0.2221	0.20829	-0.1764	0.27644	0.24219	-0.22984	0.19946	-0.00347	-0.24977	0.26569	-0.01304	0.08225	0.18241
1769	14.733	0.29849	-0.13937	0.22196	0.20798	-0.1758	0.27632	0.24199	-0.22921	0.19938	-0.00356	-0.24967	0.2657	-0.01311	0.08226	0.1824
1770	14.742	0.29809	-0.13862	0.22182	0.20768	-0.17521	0.2762	0.24179	-0.22861	0.1993	-0.00366	-0.24958	0.26571	-0.01319	0.08226	0.18238
1771	14.75	0.29769	-0.1379	0.22169	0.20738	-0.17462	0.27608	0.24161	-0.22801	0.19922	-0.00376	-0.24948	0.26571	-0.01326	0.08225	0.18237
1772	14.758	0.29729	-0.13721	0.22157	0.20709	-0.17403	0.27595	0.24142	-0.22743	0.19914	-0.00386	-0.24939	0.26572	-0.01334	0.08225	0.18235
1773	14.767	0.29689	-0.13655	0.22147	0.20679	-0.17345	0.27582	0.24124	-0.22686	0.19907	-0.00397	-0.2493	0.26572	-0.01343	0.08224	0.18234
1774	14.775	0.2965	-0.13589	0.22135	0.2065	-0.17288	0.27569	0.24105	-0.22631	0.19901	-0.00407	-0.24922	0.26572	-0.01351	0.08223	0.18232
1775	14.783	0.29611	-0.13523	0.22123	0.20621	-0.17232	0.27557	0.24087	-0.22576	0.19893	-0.00417	-0.24913	0.26572	-0.01359	0.08222	0.1823
1776	14.792	0.29571	-0.13456	0.22109	0.20591	-0.17177	0.27545	0.24069	-0.22521	0.19886	-0.00427	-0.24905	0.26572	-0.01368	0.08221	0.18228
1777	14.8	0.29531	-0.13388	0.22096	0.20562	-0.17123	0.27533	0.24051	-0.22465	0.19877	-0.00437	-0.24898	0.26572	-0.01376	0.08219	0.18225
1778	14.808	0.29491	-0.13321	0.22082	0.20532	-0.17071	0.27522	0.24032	-0.2241	0.19869	-0.00447	-0.24891	0.26572	-0.01384	0.08217	0.18223
1779	14.817	0.29451	-0.13253	0.22068	0.20502	-0.1702	0.27511	0.24014	-0.22355	0.1986	-0.00458	-0.24885	0.26571	-0.01391	0.08216	0.18221
1780	14.825	0.29411	-0.13186	0.22055	0.20471	-0.16971	0.275	0.23995	-0.22301	0.1985	-0.00468	-0.24878	0.2657	-0.01397	0.08214	0.1822
1781	14.833	0.29371	-0.13118	0.22041	0.20441	-0.16921	0.2749	0.23975	-0.22247	0.1984	-0.00479	-0.24872	0.2657	-0.01403	0.08213	0.18218
1782	14.842	0.29333	-0.13051	0.22028	0.20411	-0.16871	0.27479	0.23954	-0.22193	0.19829	-0.0049	-0.24866	0.26569	-0.01409	0.08212	0.18217
1783	14.85	0.29294	-0.12983	0.22015	0.20381	-0.16821	0.27468	0.23933	-0.22137	0.19817	-0.00501	-0.2486	0.26568	-0.01414	0.0821	0.18215
1784	14.858	0.29255	-0.12916	0.22002	0.2035	-0.16771	0.27457	0.23911	-0.22078	0.19805	-0.00513	-0.24854	0.26567	-0.0142	0.08208	0.18213
1785	14.867	0.29216	-0.1285	0.21988	0.2032	-0.16721	0.27447	0.23889	-0.2202	0.19793	-0.00524	-0.24848	0.26565	-0.01426	0.08207	0.18212
1786	14.875	0.29177	-0.12784	0.21973	0.2029	-0.16671	0.27436	0.23868	-0.21964	0.19782	-0.00535	-0.24842	0.26564	-0.01431	0.08205	0.18211
1787	14.883	0.29137	-0.12718	0.21959	0.2026	-0.16621	0.27426	0.23847	-0.2191	0.19771	-0.00547	-0.24837	0.26562	-0.01436	0.08204	0.1821
1788	14.892	0.29097	-0.12654	0.21945	0.2023	-0.16571	0.27416	0.23826	-0.21858	0.19762	-0.00558	-0.24831	0.26561	-0.01441	0.08203	0.1821
1789	14.9	0.29057	-0.1259	0.2193	0.202	-0.16522	0.27405	0.23806	-0.21807	0.19753	-0.00568	-0.24825	0.2656	-0.01446	0.08202	0.18209
1790	14.908	0.29018	-0.12527	0.21917	0.20169	-0.16473	0.27395	0.23787	-0.21758	0.19744	-0.00578	-0.24819	0.26558	-0.01451	0.08201	0.18208
1791	14.917	0.2898	-0.12464	0.21903	0.20139	-0.16425	0.27385	0.23768	-0.2171	0.19737	-0.00588	-0.24813	0.26557	-0.01457	0.082	0.18207
1792	14.925	0.28943	-0.12403	0.2189	0.2011	-0.16378	0.27374	0.2375	-0.21662	0.19729	-0.00597	-0.24808	0.26556	-0.01462	0.08199	0.18206
1793	14.933	0.28907	-0.12342	0.21877	0.20082	-0.16331	0.27363	0.23733	-0.21615	0.19723	-0.00606	-0.24802	0.26555	-0.01467	0.08198	0.18205
